Coordinates
version=1
nRows=10
nColumns=33
inDegrees=yes

Units are S.I. units (second, meters, Newtons, ...)
Angles are in degrees.

endheader
time	ground_thorax_rot_x	ground_thorax_rot_y	ground_thorax_rot_z	ground_thorax_tx	ground_thorax_ty	ground_thorax_tz	clav_prot_r	clav_elev_r	scapula_abduction_r	scapula_elevation_r	scapula_upward_rot_r	scapula_winging_r	shoulder_elv_r	plane_of_elev_r	axial_rot_r	elbow_flexion_r	pro_sup_r	wrist_flex_r	wrist_dev_r	clav_prot_l	clav_elev_l	scapula_abduction_l	scapula_elevation_l	scapula_upward_rot_l	scapula_winging_l	shoulder_elv_l	plane_of_elev_l	axial_rot_l	elbow_flexion_l	pro_sup_l	wrist_flex_l	wrist_dev_l
     10.97000000	    -26.68013798	    -31.65819326	     46.07105225	    -55.77869791	    827.97495002	    -42.34008357	     27.80821505	    -45.00000000	     40.83497656	    -45.00000000	    -45.00000000	  -2625.23145349	  -3883.34132834	     21.75937050	   -150.29414510	   1799.50212779	   -196.12137712	     14.01496152	     14.68726647	     -0.54055197	     32.71865272	    -31.79004839	    -45.00000000	    -45.00000000	  -2071.77901455	  -2441.39729877	     27.26354394	     50.84795168	   1429.06875950	     37.71319532	     13.95205424	    -16.73560082
     10.98000000	    -27.04162333	    -31.55621635	     45.46715070	    -57.86078433	    829.50769837	    -42.48043771	     27.86671332	    -45.00000000	     40.71302666	    -45.00000000	    -45.00000000	  -2625.27787822	  -3883.29532408	     21.96215527	   -150.32648920	   1799.67955851	   -196.64499738	     14.04696958	     14.69216216	     -0.55197162	     32.75914017	    -31.98429860	    -45.00000000	    -45.00000000	  -2071.51035245	  -2441.49094788	     27.34315711	     50.92129519	   1429.08696860	     37.54208396	     14.05425036	    -16.94795852
     10.99000000	    -27.21001961	    -31.44457140	     45.14807824	    -59.90730719	    831.01868402	    -42.62146132	     27.71517693	    -45.00000000	     40.82502299	    -45.00000000	    -45.00000000	  -2625.45565770	  -3883.17496426	     21.88557079	   -150.38863285	   1799.46864173	   -197.24662394	     14.07904115	     14.76130047	     -0.55309650	     32.80133331	    -32.02673907	    -45.00000000	    -45.00000000	  -2071.53739690	  -2441.30065841	     27.30934403	     50.84712339	   1429.00820907	     37.36943659	     14.09357899	    -16.99792553
     11.00000000	    -27.50324940	    -31.32443043	     44.59704027	    -61.91215059	    832.50292200	    -42.76519870	     27.76132495	    -45.00000000	     40.80601431	    -45.00000000	    -45.00000000	  -2625.50336764	  -3883.10903742	     21.99395739	   -150.44185524	   1799.53554152	   -197.88279573	     14.10005573	     14.75924195	     -0.54795588	     32.85209839	    -32.18323975	    -45.00000000	    -45.00000000	  -2071.35508700	  -2441.34876959	     27.33885008	     50.86322402	   1428.96969091	     37.18389152	     14.16427940	    -17.15062749
     11.01000000	    -27.77029936	    -31.22102503	     44.15078996	    -63.87810213	    833.96090807	    -42.91420862	     27.72388053	    -45.00000000	     40.84277473	    -45.00000000	    -45.00000000	  -2625.69620281	  -3883.08641479	     22.04711483	   -150.39779069	   1799.45785857	   -198.50218268	     14.10931419	     14.80581101	     -0.59062443	     32.87188515	    -32.25403216	    -45.00000000	    -45.00000000	  -2071.24705443	  -2441.29915098	     27.39520557	     50.87672013	   1429.03104537	     36.98218749	     14.24225224	    -17.32159490
     11.02000000	    -27.99632598	    -31.10139421	     43.66539547	    -65.80539630	    835.38947416	    -43.07036066	     27.63985982	    -45.00000000	     40.88584961	    -45.00000000	    -45.00000000	  -2625.71673040	  -3882.95817503	     22.03284969	   -150.38215017	   1799.38751609	   -199.15285351	     14.12391723	     14.79661940	     -0.53908752	     32.92280869	    -32.32976246	    -45.00000000	    -45.00000000	  -2071.19154637	  -2441.27216384	     27.35936801	     50.84534703	   1428.99583908	     36.78929264	     14.25328091	    -17.37716135
     11.03000000	    -28.18282187	    -31.04702114	     43.30983906	    -67.69239901	    836.78386439	    -43.23377893	     27.70429991	    -45.00000000	     40.98224269	    -45.00000000	    -45.00000000	  -2625.91560957	  -3882.93382286	     22.08028917	   -150.32458422	   1799.37634552	   -199.77905053	     14.12715234	     14.78279511	     -0.60627916	     32.94019426	    -32.34735312	    -45.00000000	    -45.00000000	  -2071.11470587	  -2441.25172364	     27.39462999	     50.81104673	   1428.99145956	     36.59105834	     14.32843877	    -17.49830400
     11.04000000	    -28.33719528	    -30.93299577	     43.00966063	    -69.54165734	    838.14251574	    -43.40415539	     27.62389412	    -45.00000000	     41.00269616	    -45.00000000	    -45.00000000	  -2625.96104646	  -3882.76177985	     21.96018739	   -150.25006899	   1799.28330468	   -200.40016453	     14.13600016	     14.75627683	     -0.57475500	     32.97520095	    -32.41068597	    -45.00000000	    -45.00000000	  -2071.12708776	  -2441.11276223	     27.34256525	     50.65492618	   1428.89154898	     36.40868119	     14.34333053	    -17.48705434
     11.05000000	    -28.57196207	    -30.82635178	     42.59506970	    -71.35227610	    839.46219422	    -43.57960865	     27.60507714	    -45.00000000	     40.99290898	    -45.00000000	    -45.00000000	  -2626.08064977	  -3882.70123458	     21.97198389	   -150.14368494	   1799.21098211	   -200.95858811	     14.18076128	     14.72594467	     -0.58029356	     33.01110459	    -32.50475085	    -45.00000000	    -45.00000000	  -2071.01878830	  -2441.08773265	     27.36203724	     50.57916925	   1428.86362337	     36.22245319	     14.41157977	    -17.57266659
     11.06000000	    -28.86483250	    -30.65564306	     42.01382144	    -73.12752753	    840.74328173	    -43.75901005	     27.58205392	    -45.00000000	     40.97721478	    -45.00000000	    -45.00000000	  -2626.18601930	  -3882.66539794	     22.10554665	   -149.98125534	   1799.21237435	   -201.39083064	     14.22462872	     14.70698729	     -0.60320705	     33.04192527	    -32.61757884	    -45.00000000	    -45.00000000	  -2070.84230870	  -2441.20486543	     27.45290876	     50.63425616	   1428.91749398	     36.04109167	     14.54873276	    -17.75585170
